<svg width="112" height="176" viewBox="0 0 112 176" fill="none" xmlns="http://www.w3.org/2000/svg">
<path d="M17.2322 174.768C18.2085 175.744 19.7915 175.744 20.7678 174.768L36.6777 158.858C37.654 157.882 37.654 156.299 36.6777 155.322C35.7014 154.346 34.1184 154.346 33.1421 155.322L19 169.464L4.85786 155.322C3.88155 154.346 2.29864 154.346 1.32233 155.322C0.346017 156.299 0.346017 157.882 1.32233 158.858L17.2322 174.768ZM34.3757 1.19215C36.1148 23.7506 41.2428 57.6239 51.0191 85.9308C55.9032 100.073 62.0036 112.993 69.5427 122.424C77.0892 131.865 86.3162 138.083 97.3901 138.083L97.3901 133.083C88.4054 133.083 80.4702 128.087 73.4482 119.302C66.4188 110.509 60.5446 98.195 55.7452 84.2986C46.1545 56.529 41.0803 23.1106 39.3609 0.80784L34.3757 1.19215ZM97.3901 138.083C103.761 138.083 108.607 136.611 110.615 132.927C112.648 129.196 110.918 124.821 108.321 121.24C102.919 113.79 91.0178 105.719 77.678 101.96C64.2739 98.184 48.793 98.6036 36.6645 109.098C24.5955 119.54 16.5 139.412 16.5 173L21.5 173C21.5 140.022 29.4716 121.933 39.9361 112.879C50.3412 103.876 63.8603 103.262 76.3221 106.773C88.8481 110.302 99.6788 117.839 104.273 124.176C106.675 127.488 106.76 129.551 106.224 130.534C105.663 131.565 103.556 133.083 97.3901 133.083L97.3901 138.083Z" fill="#FF5937"/>
</svg>
