<svg width="150" height="150" viewBox="0 0 150 150" fill="none" xmlns="http://www.w3.org/2000/svg">
<circle cx="75" cy="75" r="75" fill="#FF5937"/>
<path d="M67.5 80H72.5C73.8261 80 75.0979 79.4732 76.0355 78.5355C76.9732 77.5979 77.5 76.3261 77.5 75C77.5 73.6739 76.9732 72.4021 76.0355 71.4645C75.0979 70.5268 73.8261 70 72.5 70H65C63.5 70 62.25 70.5 61.5 71.5L47.5 85" stroke="#FDF9EB" stroke-width="4" stroke-linecap="round" stroke-linejoin="round"/>
<path d="M57.5 94.9997L61.5 91.4997C62.25 90.4997 63.5 89.9997 65 89.9997H75C77.75 89.9997 80.25 88.9997 82 86.9997L93.5 75.9997C94.4647 75.088 95.0278 73.8304 95.0653 72.5036C95.1028 71.1768 94.6117 69.8894 93.7 68.9247C92.7883 67.96 91.5307 67.3969 90.2039 67.3594C88.8771 67.3219 87.5897 67.813 86.625 68.7247L76.125 78.4747" stroke="#FDF9EB" stroke-width="4" stroke-linecap="round" stroke-linejoin="round"/>
<path d="M45 82.5L60 97.5" stroke="#FDF9EB" stroke-width="4" stroke-linecap="round" stroke-linejoin="round"/>
<path d="M88.7499 66.25C90.4999 64.5 92.4999 62.25 92.4999 59.5C92.6746 57.9723 92.3284 56.4304 91.5172 55.1241C90.7061 53.8178 89.4776 52.8237 88.0309 52.3029C86.5841 51.782 85.0039 51.765 83.5462 52.2545C82.0886 52.7441 80.839 53.7115 79.9999 55C79.1074 53.8115 77.8575 52.9403 76.4335 52.5145C75.0095 52.0886 73.4865 52.1305 72.0881 52.6339C70.6897 53.1373 69.4894 54.0758 68.6636 55.3116C67.8378 56.5474 67.43 58.0154 67.4999 59.5C67.4999 62.5 69.4999 64.5 71.2499 66.5L79.9999 75L88.7499 66.25Z" stroke="#FDF9EB" stroke-width="4" stroke-linecap="round" stroke-linejoin="round"/>
</svg>
