<svg width="213" height="213" viewBox="0 0 213 213" fill="none" xmlns="http://www.w3.org/2000/svg">
<g clip-path="url(#clip0_160_501)">
<path d="M37.3302 212.17C37.1446 212.17 36.959 212.17 36.7734 212.17C25.5473 212.078 16.7335 208.83 10.4246 202.522C4.11571 196.213 0.961239 187.399 0.775683 176.173C0.682905 165.503 3.46617 153.256 8.94008 139.804C13.3934 128.949 19.424 117.63 26.939 106.218C19.424 94.8067 13.3934 83.4878 8.94008 72.6328L8.66181 71.9833L9.03294 71.4267C13.8574 63.4478 19.424 55.6544 25.5473 48.2322C28.9801 44.0571 32.784 39.9749 36.6807 36.0782C40.5774 32.1816 44.6596 28.4704 48.8346 24.9449C56.164 18.8215 63.9574 13.2549 72.0291 8.43038L72.5858 8.05928L73.2352 8.3376C84.0903 12.791 95.4091 18.8215 106.821 26.3365C118.232 18.8215 129.551 12.791 140.406 8.3376C153.952 2.8637 166.199 0.0803655 176.775 0.173144C188.001 0.265922 196.815 3.51315 203.124 9.82205C209.433 16.131 212.588 24.9449 212.773 36.171C212.866 46.8405 210.083 59.0872 204.609 72.54C200.155 83.395 194.125 94.7139 186.61 106.125C194.125 117.537 200.155 128.856 204.609 139.711L204.887 140.36L204.516 140.917C199.691 148.99 194.125 156.782 188.001 164.111C184.569 168.286 180.765 172.369 176.868 176.265C172.971 180.162 168.889 183.873 164.807 187.306C157.477 193.429 149.684 198.996 141.612 203.82L141.056 204.192L140.406 203.913C129.551 199.46 118.232 193.429 106.821 185.914C95.4091 193.429 84.0903 199.46 73.2352 203.913C59.968 209.48 47.9069 212.17 37.3302 212.17ZM11.8162 72.2617C16.2696 83.0239 22.3001 94.1573 29.8151 105.476L30.279 106.218L29.8151 106.96C22.1145 118.465 15.9912 129.876 11.6306 140.824C6.24954 153.999 3.559 165.874 3.65177 176.173C3.74455 186.656 6.71345 194.821 12.4656 200.573C18.2179 206.325 26.4752 209.294 36.8663 209.387C47.1647 209.48 59.0402 206.789 72.2147 201.408C83.1625 196.955 94.5742 190.832 106.078 183.224L106.821 182.76L107.563 183.224C118.882 190.739 130.015 196.77 140.777 201.223C148.478 196.585 155.9 191.203 162.951 185.358H163.044C167.126 181.925 171.116 178.214 175.012 174.41C178.816 170.606 182.528 166.524 185.96 162.441C191.898 155.39 197.279 147.875 201.918 140.175C197.465 129.412 191.434 118.279 183.919 106.96L183.455 106.218L183.919 105.476C191.527 93.9717 197.743 82.56 202.104 71.6122C207.485 58.4378 210.175 46.5622 210.083 36.2638C209.99 25.7799 207.021 17.6154 201.269 11.8632C195.516 6.11094 187.259 3.14205 176.868 3.04927C166.57 2.95649 154.694 5.64703 141.52 11.0282C130.572 15.4815 119.16 21.6049 107.656 29.2127L106.914 29.6766L106.171 29.2127C94.8525 21.6976 83.7191 15.6671 72.9569 11.2137C65.2563 15.8526 57.7413 21.2338 50.6901 27.1716C46.6079 30.6044 42.6185 34.3155 38.7219 38.1194C34.918 41.9233 31.2068 46.0055 27.774 50.0877C21.8362 57.0461 16.4551 64.5611 11.8162 72.2617Z" fill="#FF5937"/>
<path d="M37.3302 212.171C37.1446 212.171 36.959 212.171 36.7734 212.171C25.5473 212.078 16.7335 208.831 10.4246 202.522C4.11571 196.213 0.961239 187.399 0.775683 176.173C0.682905 165.503 3.46617 153.257 8.94008 139.804C13.4862 128.67 19.7023 117.166 27.4029 105.476C33.619 96.1056 40.6702 86.8278 48.4636 77.8284C53.0097 72.54 57.8341 67.3445 62.8442 62.3344C67.8542 57.3244 73.0497 52.5 78.338 47.9538C87.3375 40.1605 96.6154 33.0166 105.986 26.8932C117.676 19.0999 129.18 12.8838 140.314 8.43038C153.859 2.95647 166.106 0.173139 176.683 0.265917C187.909 0.358695 196.723 3.60592 203.032 9.91483C209.34 16.2238 212.495 25.0377 212.68 36.2638C212.773 46.9333 209.99 59.18 204.516 72.6328C199.97 83.7662 193.754 95.2706 186.053 106.96C179.837 116.331 172.786 125.609 164.993 134.608C160.446 139.896 155.622 145.092 150.612 150.102C145.602 155.112 140.406 159.937 135.118 164.483C126.118 172.276 116.841 179.42 107.47 185.543C95.7803 193.337 84.1832 199.553 73.1425 204.006C59.968 209.48 47.9069 212.171 37.3302 212.171ZM176.311 2.95648C166.106 2.95648 154.416 5.64705 141.427 10.9354C130.479 15.3888 119.067 21.5121 107.563 29.1199C98.2853 35.2432 89.1003 42.2944 80.1936 49.9949C74.998 54.5411 69.8025 59.3655 64.8852 64.2828C59.968 69.2 55.1435 74.3956 50.5974 79.5912C42.8968 88.4978 35.8457 97.6829 29.7223 106.96C22.0218 118.465 15.8984 129.876 11.5379 140.824C6.15678 153.999 3.46624 165.874 3.55902 176.173C3.6518 186.657 6.62069 194.821 12.3729 200.573C18.1251 206.326 26.3823 209.294 36.7734 209.387C47.0718 209.48 58.9475 206.789 72.122 201.408C83.0698 196.955 94.4815 190.832 105.986 183.224C115.264 177.1 124.449 170.049 133.355 162.349C138.551 157.803 143.746 152.978 148.664 148.061C153.581 143.144 158.405 137.948 162.951 132.753C170.652 123.846 177.703 114.661 183.826 105.383C191.434 93.879 197.65 82.4673 202.011 71.5195C207.392 58.345 210.083 46.4694 209.99 36.171C209.897 25.6871 206.928 17.5227 201.176 11.7704C195.424 6.01815 187.166 3.04926 176.775 2.95648C176.683 2.95648 176.497 2.95648 176.311 2.95648Z" fill="#FF5937"/>
<path d="M15.7128 204.47C13.4861 204.47 11.7233 203.82 10.5172 202.614C7.82662 199.924 8.10489 194.821 11.2594 187.213C14.1355 180.347 19.2383 171.626 26.5677 161.235C41.505 139.989 63.7718 114.289 89.2858 88.7754C114.8 63.2615 140.592 40.9947 161.745 26.0575C172.137 18.728 180.858 13.6252 187.723 10.7491C195.424 7.50184 200.434 7.31629 203.124 10.0069C205.815 12.6974 205.537 17.8002 202.382 25.408C199.506 32.2736 194.403 40.9947 187.074 51.3859C172.136 72.632 149.87 98.3315 124.356 123.846C98.8418 149.36 73.0496 171.626 51.8962 186.564C41.5051 193.893 32.7839 198.996 25.9183 201.872C21.7433 203.542 18.4033 204.47 15.7128 204.47ZM197.929 10.7491C193.475 10.7491 183.826 13.718 163.415 28.0986C142.355 42.9431 116.748 65.117 91.3268 90.5382C65.9057 115.959 43.7317 141.566 28.8872 162.627C8.10489 192.223 11.0738 199.181 12.5583 200.573C13.95 201.965 20.9083 205.026 50.5045 184.244C71.5651 169.4 97.1718 147.226 122.593 121.804C148.014 96.3832 170.188 70.7765 185.033 49.7159C205.815 20.1197 202.846 13.1613 201.362 11.7697C200.805 11.3985 199.877 10.7491 197.929 10.7491Z" fill="#FF5937"/>
<path d="M72.0294 203.913C63.9577 199.089 56.1644 193.522 48.8349 187.399L48.7421 187.306C44.6599 183.873 40.5777 180.162 36.681 176.266C32.7843 172.369 29.0732 168.287 25.5476 164.112C19.4243 156.782 13.8577 148.989 9.0332 140.917L11.3527 139.525C16.0843 147.412 21.5582 155.112 27.6816 162.349C31.1144 166.431 34.8254 170.42 38.6293 174.317C42.4332 178.121 46.5155 181.832 50.5977 185.265L50.6905 185.358C57.9271 191.388 65.5349 196.862 73.4211 201.594L72.0294 203.913Z" fill="#FF5937"/>
<path d="M202.289 72.8186C197.558 64.9325 192.084 57.2319 186.053 50.088V49.9952C182.62 45.913 178.909 41.9235 175.105 38.0269C171.301 34.223 167.219 30.5119 163.137 27.0791C155.9 21.0485 148.2 15.4818 140.314 10.7501L141.705 8.43066C149.777 13.2551 157.57 18.8218 164.9 24.9452C169.075 28.3779 173.157 32.1818 177.054 36.0785C180.95 39.9752 184.662 44.0574 188.094 48.1397C194.218 55.4691 199.784 63.2625 204.609 71.3342L202.289 72.8186Z" fill="#FF5937"/>
<path d="M176.31 212.171C165.826 212.171 153.673 209.387 140.405 204.006C129.272 199.46 117.768 193.244 106.077 185.543C96.7072 179.327 87.4294 172.276 78.4299 164.483C73.1415 159.937 67.946 155.112 62.936 150.102C57.926 145.092 53.1015 139.896 48.5554 134.608C40.7621 125.609 33.6181 116.331 27.4947 106.96C19.7014 95.2706 13.4853 83.7662 9.03199 72.6328C3.55809 59.0872 0.774702 46.8405 0.86748 36.2638C0.960258 25.0377 4.20751 16.2238 10.5164 9.91483C16.8253 3.60592 25.6393 0.451473 36.8654 0.265917C47.5349 0.173139 59.7815 2.95647 73.2343 8.43038C84.3677 12.9765 95.8722 19.1927 107.562 26.8932C116.932 33.1094 126.21 40.1605 135.21 47.9538C140.498 52.5 145.694 57.3244 150.704 62.3344C155.714 67.3445 160.538 72.54 165.084 77.8284C172.878 86.8278 180.022 96.1056 186.145 105.476C193.938 117.166 200.154 128.67 204.608 139.804C210.082 153.349 212.865 165.596 212.772 176.173C212.679 187.399 209.432 196.213 203.123 202.522C196.814 208.831 188 211.985 176.774 212.171C176.682 212.171 176.496 212.171 176.31 212.171ZM37.3293 2.95648C37.1437 2.95648 36.9582 2.95648 36.8654 2.95648C26.3815 3.04926 18.217 6.01815 12.4647 11.7704C6.7125 17.5227 3.7436 25.7799 3.65082 36.2638C3.55804 46.5622 6.24858 58.4378 11.6297 71.6122C16.0831 82.56 22.2064 93.9717 29.8142 105.476C35.9375 114.754 42.9887 123.939 50.6892 132.845C55.2354 138.041 60.0598 143.236 64.9771 148.154C69.8943 153.071 75.0899 157.895 80.2854 162.442C89.1921 170.142 98.3772 177.193 107.655 183.317C119.159 190.924 130.571 197.14 141.519 201.501C154.693 206.882 166.569 209.573 176.867 209.48C187.351 209.387 195.515 206.418 201.268 200.666C207.02 194.914 209.989 186.657 210.082 176.265C210.174 165.967 207.484 154.091 202.103 140.917C197.649 129.969 191.526 118.558 183.918 107.053C177.795 97.7756 170.744 88.5906 163.043 79.6839C158.497 74.4883 153.673 69.2928 148.755 64.3755C143.838 59.4583 138.643 54.6339 133.447 50.0877C124.54 42.3872 115.355 35.336 106.077 29.2127C94.5733 21.5121 83.1616 15.3887 72.2138 11.0282C59.2249 5.64702 47.5349 2.95648 37.3293 2.95648Z" fill="#FF5937"/>
<path d="M198.02 204.47C195.33 204.47 191.99 203.635 187.815 201.872C180.949 198.996 172.228 193.893 161.837 186.564C140.591 171.627 114.891 149.36 89.378 123.846C63.864 98.332 41.5973 72.5398 26.66 51.3864C19.3306 40.9952 14.2278 32.2741 11.3517 25.4085C8.10441 17.7079 7.91881 12.698 10.6094 10.0074C13.3 7.31683 18.4027 7.59515 26.0105 10.7496C32.8761 13.6257 41.5972 18.7285 51.9884 26.058C73.2345 40.9952 98.934 63.262 124.447 88.7759C149.961 114.29 172.228 140.082 187.166 161.236C194.495 171.627 199.598 180.348 202.474 187.213C205.721 194.914 205.907 199.924 203.216 202.615C201.917 203.821 200.247 204.47 198.02 204.47ZM91.2335 121.898C116.654 147.319 142.261 169.493 163.321 184.337C192.918 205.12 199.876 202.151 201.268 200.666C202.659 199.275 205.721 192.316 184.939 162.72C170.094 141.659 147.92 116.053 122.499 90.6315C97.0785 65.2103 71.4718 43.0363 50.4112 28.1919C20.815 7.40959 13.8566 10.3785 12.465 11.863C11.0733 13.2546 8.01157 20.213 28.7939 49.8092C43.6383 70.8698 65.8123 96.4765 91.2335 121.898Z" fill="#FF5937"/>
</g>
<defs>
<clipPath id="clip0_160_501">
<rect width="213" height="213" fill="white"/>
</clipPath>
</defs>
</svg>
